2022-10-19 14:11:48,381 [main] INFO  [com.suke.axsc.web.WebApplication] StartupInfoLogger.java:55 - Starting WebApplication using Java 1.8.0_77 on USERCHI-SALSHQ8 with PID 14140 (E:\github\push-stream\web-app\target\classes started by Administrator in E:\github\push-stream)
2022-10-19 14:11:48,384 [main] INFO  [com.suke.axsc.web.WebApplication] SpringApplication.java:634 - No active profile set, falling back to 1 default profile: "default"
2022-10-19 14:11:49,074 [main] INFO  [o.s.boot.web.embedded.tomcat.TomcatWebServer] TomcatWebServer.java:108 - Tomcat initialized with port(s): 8055 (http)
2022-10-19 14:11:49,080 [main] INFO  [org.apache.coyote.http11.Http11NioProtocol] DirectJDKLog.java:173 - Initializing ProtocolHandler ["http-nio-8055"]
2022-10-19 14:11:49,095 [main] INFO  [org.apache.catalina.core.StandardService] DirectJDKLog.java:173 - Starting service [Tomcat]
2022-10-19 14:11:49,096 [main] INFO  [org.apache.catalina.core.StandardEngine] DirectJDKLog.java:173 - Starting Servlet engine: [Apache Tomcat/9.0.65]
2022-10-19 14:11:49,190 [main] INFO  [o.a.c.core.ContainerBase.[Tomcat].[localhost].[/]] DirectJDKLog.java:173 - Initializing Spring embedded WebApplicationContext
2022-10-19 14:11:49,190 [main] INFO  [o.s.b.w.s.c.ServletWebServerApplicationContext] ServletWebServerApplicationContext.java:292 - Root WebApplicationContext: initialization completed in 778 ms
2022-10-19 14:11:49,614 [main] INFO  [o.s.b.a.web.servlet.WelcomePageHandlerMapping] WelcomePageHandlerMapping.java:53 - Adding welcome page: class path resource [static/index.html]
2022-10-19 14:11:49,667 [main] INFO  [c.s.a.common.push.util.ApplicationContextRegister] ApplicationContextRegister.java:27 - ApplicationContext register-->org.springframework.boot.web.servlet.context.AnnotationConfigServletWebServerApplicationContext@66ce957f, started on Wed Oct 19 14:11:48 CST 2022
2022-10-19 14:11:49,874 [main] INFO  [org.yeauty.standard.ServerEndpointExporter] ServerEndpointExporter.java:131 - [34mNetty WebSocket started on port: 8056 with context path(s): '/websocket/{sid}' .[0m
2022-10-19 14:11:49,876 [main] INFO  [org.apache.coyote.http11.Http11NioProtocol] DirectJDKLog.java:173 - Starting ProtocolHandler ["http-nio-8055"]
2022-10-19 14:11:49,883 [main] INFO  [o.s.boot.web.embedded.tomcat.TomcatWebServer] TomcatWebServer.java:220 - Tomcat started on port(s): 8055 (http) with context path ''
2022-10-19 14:11:49,889 [main] INFO  [com.suke.axsc.web.WebApplication] StartupInfoLogger.java:61 - Started WebApplication in 1.847 seconds (JVM running for 2.277)
2022-10-19 14:11:49,891 [main] INFO  [com.suke.axsc.web.WebApplication] WebApplication.java:20 - æ¨æµæœåŠ¡å¯åŠ¨æˆåŠŸï¼šhttp://localhost:8055/index.html
2022-10-19 14:11:56,779 [http-nio-8055-exec-1] INFO  [o.a.c.core.ContainerBase.[Tomcat].[localhost].[/]] DirectJDKLog.java:173 - Initializing Spring DispatcherServlet 'dispatcherServlet'
2022-10-19 14:11:56,779 [http-nio-8055-exec-1] INFO  [org.springframework.web.servlet.DispatcherServlet] FrameworkServlet.java:525 - Initializing Servlet 'dispatcherServlet'
2022-10-19 14:11:56,780 [http-nio-8055-exec-1] INFO  [org.springframework.web.servlet.DispatcherServlet] FrameworkServlet.java:547 - Completed initialization in 0 ms
2022-10-19 14:11:57,034 [http-nio-8055-exec-1] INFO  [com.zaxxer.hikari.HikariDataSource] HikariDataSource.java:110 - HikariPool-1 - Starting...
2022-10-19 14:11:57,051 [nioEventLoopGroup-4-1] INFO  [com.suke.axsc.web.component.NettyWebSocketServer] NettyWebSocketServer.java:73 - NettyWebSocket[64259],è¿æ¥æˆåŠŸ
2022-10-19 14:11:57,145 [http-nio-8055-exec-1] INFO  [com.zaxxer.hikari.HikariDataSource] HikariDataSource.java:123 - HikariPool-1 - Start completed.
2022-10-19 14:12:02,030 [defaultEventExecutorGroup-2-1] INFO  [com.suke.axsc.common.push.util.ExecUtil] ExecUtil.java:91 - ä»»åŠ¡IDï¼šlive1,ä½¿ç”¨è¾“å‡ºçº¿ç¨‹ï¼šThread-12
2022-10-19 14:12:02,031 [defaultEventExecutorGroup-2-1] INFO  [com.suke.axsc.common.push.handler.TaskHandlerImpl] TaskHandlerImpl.java:39 - live1 æ‰§è¡Œå‘½ä»¤è¡Œï¼šJ:/rtsp_live/ffmpeg-master-latest-win64-gpl/bin/ffmpeg -fflags +genpts -rtsp_transport tcp -thread_queue_size 16 -i rtsp://admin:admin172839@192.168.0.209:1024/Streaming/Channels/101 -vcodec copy -f flv -an -s 640x480 rtmp://127.0.0.1:1935/hls/live1
2022-10-19 14:12:02,031 [Thread-12] INFO  [com.suke.axsc.common.push.handler.OutHandler] OutHandler.java:100 - live1å¼€å§‹æ¨æµï¼
2022-10-19 14:12:02,032 [defaultEventExecutorGroup-2-1] INFO  [com.suke.axsc.web.component.NettyWebSocketServer] NettyWebSocketServer.java:124 - NettyWebSocket[64259],è®¢é˜…[1]ç›´æ’­
2022-10-19 14:12:02,087 [Thread-12] INFO  [com.suke.axsc.web.handler.CustomOutHandlerMethod] CustomOutHandlerMethod.java:59 - live1æ—¥å¿—ï¼šffmpeg version N-108404-gc03f9654c9-20220927 Copyright (c) 2000-2022 the FFmpeg developers
2022-10-19 14:12:02,087 [Thread-12] INFO  [com.suke.axsc.web.handler.CustomOutHandlerMethod] CustomOutHandlerMethod.java:59 - live1æ—¥å¿—ï¼š  built with gcc 12.1.0 (crosstool-NG 1.25.0.55_3defb7b)
2022-10-19 14:12:02,087 [Thread-12] INFO  [com.suke.axsc.web.handler.CustomOutHandlerMethod] CustomOutHandlerMethod.java:59 - live1æ—¥å¿—ï¼š  configuration: --prefix=/ffbuild/prefix --pkg-config-flags=--static --pkg-config=pkg-config --cross-prefix=x86_64-w64-mingw32- --arch=x86_64 --target-os=mingw32 --enable-gpl --enable-version3 --disable-debug --disable-w32threads --enable-pthreads --enable-iconv --enable-libxml2 --enable-zlib --enable-libfreetype --enable-libfribidi --enable-gmp --enable-lzma --enable-fontconfig --enable-libvorbis --enable-opencl --disable-libpulse --enable-libvmaf --disable-libxcb --disable-xlib --enable-amf --enable-libaom --enable-libaribb24 --enable-avisynth --enable-libdav1d --enable-libdavs2 --disable-libfdk-aac --enable-ffnvcodec --enable-cuda-llvm --enable-frei0r --enable-libgme --enable-libkvazaar --enable-libass --enable-libbluray --enable-libjxl --enable-libmp3lame --enable-libopus --enable-librist --enable-libssh --enable-libtheora --enable-libvpx --enable-libwebp --enable-lv2 --enable-libmfx --enable-libopencore-amrnb --enable-libopencore-amrwb --enable-libopenh264 --enable-libopenjpeg --enable-libopenmpt --enable-librav1e --enable-librubberband --enable-schannel --enable-sdl2 --enable-libsoxr --enable-libsrt --enable-libsvtav1 --enable-libtwolame --enable-libuavs3d --disable-libdrm --disable-vaapi --enable-libvidstab --enable-vulkan --enable-libshaderc --enable-libplacebo --enable-libx264 --enable-libx265 --enable-libxavs2 --enable-libxvid --enable-libzimg --enable-libzvbi --extra-cflags=-DLIBTWOLAME_STATIC --extra-cxxflags= --extra-ldflags=-pthread --extra-ldexeflags= --extra-libs=-lgomp --extra-version=20220927
2022-10-19 14:12:02,088 [Thread-12] INFO  [com.suke.axsc.web.handler.CustomOutHandlerMethod] CustomOutHandlerMethod.java:59 - live1æ—¥å¿—ï¼š  libavutil      57. 37.100 / 57. 37.100
2022-10-19 14:12:02,088 [Thread-12] INFO  [com.suke.axsc.web.handler.CustomOutHandlerMethod] CustomOutHandlerMethod.java:59 - live1æ—¥å¿—ï¼š  libavcodec     59. 48.100 / 59. 48.100
2022-10-19 14:12:02,088 [Thread-12] INFO  [com.suke.axsc.web.handler.CustomOutHandlerMethod] CustomOutHandlerMethod.java:59 - live1æ—¥å¿—ï¼š  libavformat    59. 33.100 / 59. 33.100
2022-10-19 14:12:02,088 [Thread-12] INFO  [com.suke.axsc.web.handler.CustomOutHandlerMethod] CustomOutHandlerMethod.java:59 - live1æ—¥å¿—ï¼š  libavdevice    59.  8.101 / 59.  8.101
2022-10-19 14:12:02,088 [Thread-12] INFO  [com.suke.axsc.web.handler.CustomOutHandlerMethod] CustomOutHandlerMethod.java:59 - live1æ—¥å¿—ï¼š  libavfilter     8. 49.100 /  8. 49.100
2022-10-19 14:12:02,088 [Thread-12] INFO  [com.suke.axsc.web.handler.CustomOutHandlerMethod] CustomOutHandlerMethod.java:59 - live1æ—¥å¿—ï¼š  libswscale      6.  8.112 /  6.  8.112
2022-10-19 14:12:02,089 [Thread-12] INFO  [com.suke.axsc.web.handler.CustomOutHandlerMethod] CustomOutHandlerMethod.java:59 - live1æ—¥å¿—ï¼š  libswresample   4.  9.100 /  4.  9.100
2022-10-19 14:12:02,089 [Thread-12] INFO  [com.suke.axsc.web.handler.CustomOutHandlerMethod] CustomOutHandlerMethod.java:59 - live1æ—¥å¿—ï¼š  libpostproc    56.  7.100 / 56.  7.100
2022-10-19 14:12:05,319 [Thread-13] INFO  [com.suke.axsc.common.push.handler.OutHandler] OutHandler.java:100 - live3å¼€å§‹æ¨æµï¼
2022-10-19 14:12:05,318 [defaultEventExecutorGroup-2-1] INFO  [com.suke.axsc.common.push.util.ExecUtil] ExecUtil.java:91 - ä»»åŠ¡IDï¼šlive3,ä½¿ç”¨è¾“å‡ºçº¿ç¨‹ï¼šThread-13
2022-10-19 14:12:05,319 [defaultEventExecutorGroup-2-1] INFO  [com.suke.axsc.common.push.handler.TaskHandlerImpl] TaskHandlerImpl.java:39 - live3 æ‰§è¡Œå‘½ä»¤è¡Œï¼šJ:/rtsp_live/ffmpeg-master-latest-win64-gpl/bin/ffmpeg -fflags +genpts -rtsp_transport tcp -thread_queue_size 16 -i rtsp://admin:admin172839@192.168.0.209:1024/Streaming/Channels/301 -vcodec copy -f flv -an -s 640x480 rtmp://127.0.0.1:1935/hls/live3
2022-10-19 14:12:05,319 [defaultEventExecutorGroup-2-1] INFO  [com.suke.axsc.web.component.NettyWebSocketServer] NettyWebSocketServer.java:124 - NettyWebSocket[64259],è®¢é˜…[2]ç›´æ’­
2022-10-19 14:12:05,342 [Thread-13] INFO  [com.suke.axsc.web.handler.CustomOutHandlerMethod] CustomOutHandlerMethod.java:59 - live3æ—¥å¿—ï¼šffmpeg version N-108404-gc03f9654c9-20220927 Copyright (c) 2000-2022 the FFmpeg developers
2022-10-19 14:12:05,343 [Thread-13] INFO  [com.suke.axsc.web.handler.CustomOutHandlerMethod] CustomOutHandlerMethod.java:59 - live3æ—¥å¿—ï¼š  built with gcc 12.1.0 (crosstool-NG 1.25.0.55_3defb7b)
2022-10-19 14:12:05,343 [Thread-13] INFO  [com.suke.axsc.web.handler.CustomOutHandlerMethod] CustomOutHandlerMethod.java:59 - live3æ—¥å¿—ï¼š  configuration: --prefix=/ffbuild/prefix --pkg-config-flags=--static --pkg-config=pkg-config --cross-prefix=x86_64-w64-mingw32- --arch=x86_64 --target-os=mingw32 --enable-gpl --enable-version3 --disable-debug --disable-w32threads --enable-pthreads --enable-iconv --enable-libxml2 --enable-zlib --enable-libfreetype --enable-libfribidi --enable-gmp --enable-lzma --enable-fontconfig --enable-libvorbis --enable-opencl --disable-libpulse --enable-libvmaf --disable-libxcb --disable-xlib --enable-amf --enable-libaom --enable-libaribb24 --enable-avisynth --enable-libdav1d --enable-libdavs2 --disable-libfdk-aac --enable-ffnvcodec --enable-cuda-llvm --enable-frei0r --enable-libgme --enable-libkvazaar --enable-libass --enable-libbluray --enable-libjxl --enable-libmp3lame --enable-libopus --enable-librist --enable-libssh --enable-libtheora --enable-libvpx --enable-libwebp --enable-lv2 --enable-libmfx --enable-libopencore-amrnb --enable-libopencore-amrwb --enable-libopenh264 --enable-libopenjpeg --enable-libopenmpt --enable-librav1e --enable-librubberband --enable-schannel --enable-sdl2 --enable-libsoxr --enable-libsrt --enable-libsvtav1 --enable-libtwolame --enable-libuavs3d --disable-libdrm --disable-vaapi --enable-libvidstab --enable-vulkan --enable-libshaderc --enable-libplacebo --enable-libx264 --enable-libx265 --enable-libxavs2 --enable-libxvid --enable-libzimg --enable-libzvbi --extra-cflags=-DLIBTWOLAME_STATIC --extra-cxxflags= --extra-ldflags=-pthread --extra-ldexeflags= --extra-libs=-lgomp --extra-version=20220927
2022-10-19 14:12:05,343 [Thread-13] INFO  [com.suke.axsc.web.handler.CustomOutHandlerMethod] CustomOutHandlerMethod.java:59 - live3æ—¥å¿—ï¼š  libavutil      57. 37.100 / 57. 37.100
2022-10-19 14:12:05,343 [Thread-13] INFO  [com.suke.axsc.web.handler.CustomOutHandlerMethod] CustomOutHandlerMethod.java:59 - live3æ—¥å¿—ï¼š  libavcodec     59. 48.100 / 59. 48.100
2022-10-19 14:12:05,344 [Thread-13] INFO  [com.suke.axsc.web.handler.CustomOutHandlerMethod] CustomOutHandlerMethod.java:59 - live3æ—¥å¿—ï¼š  libavformat    59. 33.100 / 59. 33.100
2022-10-19 14:12:05,344 [Thread-13] INFO  [com.suke.axsc.web.handler.CustomOutHandlerMethod] CustomOutHandlerMethod.java:59 - live3æ—¥å¿—ï¼š  libavdevice    59.  8.101 / 59.  8.101
2022-10-19 14:12:05,344 [Thread-13] INFO  [com.suke.axsc.web.handler.CustomOutHandlerMethod] CustomOutHandlerMethod.java:59 - live3æ—¥å¿—ï¼š  libavfilter     8. 49.100 /  8. 49.100
2022-10-19 14:12:05,344 [Thread-13] INFO  [com.suke.axsc.web.handler.CustomOutHandlerMethod] CustomOutHandlerMethod.java:59 - live3æ—¥å¿—ï¼š  libswscale      6.  8.112 /  6.  8.112
2022-10-19 14:12:05,344 [Thread-13] INFO  [com.suke.axsc.web.handler.CustomOutHandlerMethod] CustomOutHandlerMethod.java:59 - live3æ—¥å¿—ï¼š  libswresample   4.  9.100 /  4.  9.100
2022-10-19 14:12:05,345 [Thread-13] INFO  [com.suke.axsc.web.handler.CustomOutHandlerMethod] CustomOutHandlerMethod.java:59 - live3æ—¥å¿—ï¼š  libpostproc    56.  7.100 / 56.  7.100
2022-10-19 14:12:06,483 [Thread-13] INFO  [com.suke.axsc.web.handler.CustomOutHandlerMethod] CustomOutHandlerMethod.java:59 - live3æ—¥å¿—ï¼šInput #0, rtsp, from 'rtsp://admin:admin172839@192.168.0.209:1024/Streaming/Channels/301':
2022-10-19 14:12:06,483 [Thread-13] INFO  [com.suke.axsc.web.handler.CustomOutHandlerMethod] CustomOutHandlerMethod.java:59 - live3æ—¥å¿—ï¼š  Metadata:
2022-10-19 14:12:06,483 [Thread-13] INFO  [com.suke.axsc.web.handler.CustomOutHandlerMethod] CustomOutHandlerMethod.java:59 - live3æ—¥å¿—ï¼š    title           : HIK Media Server V3.3.11
2022-10-19 14:12:06,483 [Thread-13] INFO  [com.suke.axsc.web.handler.CustomOutHandlerMethod] CustomOutHandlerMethod.java:59 - live3æ—¥å¿—ï¼š    comment         : HIK Media Server Session Description : standard
2022-10-19 14:12:06,484 [Thread-13] INFO  [com.suke.axsc.web.handler.CustomOutHandlerMethod] CustomOutHandlerMethod.java:59 - live3æ—¥å¿—ï¼š  Duration: N/A, start: 0.040000, bitrate: N/A
2022-10-19 14:12:06,484 [Thread-13] INFO  [com.suke.axsc.web.handler.CustomOutHandlerMethod] CustomOutHandlerMethod.java:59 - live3æ—¥å¿—ï¼š  Stream #0:0: Video: h264 (Main), yuvj420p(pc, bt709, progressive), 1280x720, 25 fps, 25 tbr, 90k tbn
2022-10-19 14:12:06,494 [Thread-13] INFO  [com.suke.axsc.web.handler.CustomOutHandlerMethod] CustomOutHandlerMethod.java:59 - live3æ—¥å¿—ï¼šOutput #0, flv, to 'rtmp://127.0.0.1:1935/hls/live3':
2022-10-19 14:12:06,494 [Thread-13] INFO  [com.suke.axsc.web.handler.CustomOutHandlerMethod] CustomOutHandlerMethod.java:59 - live3æ—¥å¿—ï¼š  Metadata:
2022-10-19 14:12:06,494 [Thread-13] INFO  [com.suke.axsc.web.handler.CustomOutHandlerMethod] CustomOutHandlerMethod.java:59 - live3æ—¥å¿—ï¼š    title           : HIK Media Server V3.3.11
2022-10-19 14:12:06,495 [Thread-13] INFO  [com.suke.axsc.web.handler.CustomOutHandlerMethod] CustomOutHandlerMethod.java:59 - live3æ—¥å¿—ï¼š    comment         : HIK Media Server Session Description : standard
2022-10-19 14:12:06,495 [Thread-13] INFO  [com.suke.axsc.web.handler.CustomOutHandlerMethod] CustomOutHandlerMethod.java:59 - live3æ—¥å¿—ï¼š    encoder         : Lavf59.33.100
2022-10-19 14:12:06,495 [Thread-13] INFO  [com.suke.axsc.web.handler.CustomOutHandlerMethod] CustomOutHandlerMethod.java:59 - live3æ—¥å¿—ï¼š  Stream #0:0: Video: h264 (Main) ([7][0][0][0] / 0x0007), yuvj420p(pc, bt709, progressive), 1280x720, q=2-31, 25 fps, 25 tbr, 1k tbn
2022-10-19 14:12:06,495 [Thread-13] INFO  [com.suke.axsc.web.handler.CustomOutHandlerMethod] CustomOutHandlerMethod.java:59 - live3æ—¥å¿—ï¼šStream mapping:
2022-10-19 14:12:06,495 [Thread-13] INFO  [com.suke.axsc.web.handler.CustomOutHandlerMethod] CustomOutHandlerMethod.java:59 - live3æ—¥å¿—ï¼š  Stream #0:0 -> #0:0 (copy)
2022-10-19 14:12:06,496 [Thread-13] INFO  [com.suke.axsc.web.handler.CustomOutHandlerMethod] CustomOutHandlerMethod.java:59 - live3æ—¥å¿—ï¼šPress [q] to stop, [?] for help
2022-10-19 14:12:06,504 [Thread-13] INFO  [com.suke.axsc.web.handler.CustomOutHandlerMethod] CustomOutHandlerMethod.java:59 - live3æ—¥å¿—ï¼š[rtsp @ 000001f0d6622c00] Thread message queue blocking; consider raising the thread_queue_size option (current value: 16)
2022-10-19 14:12:06,504 [Thread-13] INFO  [com.suke.axsc.web.handler.CustomOutHandlerMethod] CustomOutHandlerMethod.java:59 - live3æ—¥å¿—ï¼š[flv @ 000001f0d67ead00] Timestamps are unset in a packet for stream 0. This is deprecated and will stop working in the future. Fix your code to set the timestamps properly
2022-10-19 14:12:07,499 [Thread-12] INFO  [com.suke.axsc.web.handler.CustomOutHandlerMethod] CustomOutHandlerMethod.java:59 - live1æ—¥å¿—ï¼š[rtsp @ 000001d7a6eb2c00] Input #0, rtsp, from 'rtsp://admin:admin172839@192.168.0.209:1024/Streaming/Channels/101':
2022-10-19 14:12:07,499 [Thread-12] INFO  [com.suke.axsc.web.handler.CustomOutHandlerMethod] CustomOutHandlerMethod.java:59 - live1æ—¥å¿—ï¼šN/  Stream #0:
2022-10-19 14:12:07,499 [Thread-12] INFO  [com.suke.axsc.web.handler.CustomOutHandlerMethod] CustomOutHandlerMethod.java:59 - live1æ—¥å¿—ï¼š  Stream #0:1: Audio: none, 16000 Hz, mono
2022-10-19 14:12:07,500 [Thread-12] INFO  [com.suke.axsc.web.handler.CustomOutHandlerMethod] CustomOutHandlerMethod.java:59 - live1æ—¥å¿—ï¼šOutput #0, flv, to 'rtmp://127.0.0.1:1935/hls/live1':
2022-10-19 14:12:07,500 [Thread-12] INFO  [com.suke.axsc.web.handler.CustomOutHandlerMethod] CustomOutHandlerMethod.java:59 - live1æ—¥å¿—ï¼š  Metadata:
2022-10-19 14:12:07,500 [Thread-12] INFO  [com.suke.axsc.web.handler.CustomOutHandlerMethod] CustomOutHandlerMethod.java:59 - live1æ—¥å¿—ï¼š    title           : HIK Media Server V3.3.11
2022-10-19 14:12:07,500 [Thread-12] INFO  [com.suke.axsc.web.handler.CustomOutHandlerMethod] CustomOutHandlerMethod.java:59 - live1æ—¥å¿—ï¼š    comment         : HIK Media Server Session Description : standard
2022-10-19 14:12:07,500 [Thread-12] INFO  [com.suke.axsc.web.handler.CustomOutHandlerMethod] CustomOutHandlerMethod.java:59 - live1æ—¥å¿—ï¼š    encoder         : Lavf59.33.100
2022-10-19 14:12:07,501 [Thread-12] INFO  [com.suke.axsc.web.handler.CustomOutHandlerMethod] CustomOutHandlerMethod.java:59 - live1æ—¥å¿—ï¼š  Stream #0:0: Video: h264 (Main) ([7][0][0][0] / 0x0007), yuvj420p(pc, bt709, progressive), 1920x1080, q=2-31, 25 fps, 25 tbr, 1k tbn
2022-10-19 14:12:07,501 [Thread-12] INFO  [com.suke.axsc.web.handler.CustomOutHandlerMethod] CustomOutHandlerMethod.java:59 - live1æ—¥å¿—ï¼šStream mapping:
2022-10-19 14:12:07,501 [Thread-12] INFO  [com.suke.axsc.web.handler.CustomOutHandlerMethod] CustomOutHandlerMethod.java:59 - live1æ—¥å¿—ï¼š  Stream #0:0 -> #0:0 (copy)
2022-10-19 14:12:07,501 [Thread-12] INFO  [com.suke.axsc.web.handler.CustomOutHandlerMethod] CustomOutHandlerMethod.java:59 - live1æ—¥å¿—ï¼šPress [q] to stop, [?] for help
2022-10-19 14:12:07,510 [Thread-12] INFO  [com.suke.axsc.web.handler.CustomOutHandlerMethod] CustomOutHandlerMethod.java:59 - live1æ—¥å¿—ï¼š[rtsp @ 000001d7a6eb2c00] Thread message queue blocking; consider raising the thread_queue_size option (current value: 16)
2022-10-19 14:12:08,213 [defaultEventExecutorGroup-2-1] INFO  [com.suke.axsc.common.push.util.ExecUtil] ExecUtil.java:91 - ä»»åŠ¡IDï¼šlive5,ä½¿ç”¨è¾“å‡ºçº¿ç¨‹ï¼šThread-14
2022-10-19 14:12:08,213 [Thread-14] INFO  [com.suke.axsc.common.push.handler.OutHandler] OutHandler.java:100 - live5å¼€å§‹æ¨æµï¼
2022-10-19 14:12:08,213 [defaultEventExecutorGroup-2-1] INFO  [com.suke.axsc.common.push.handler.TaskHandlerImpl] TaskHandlerImpl.java:39 - live5 æ‰§è¡Œå‘½ä»¤è¡Œï¼šJ:/rtsp_live/ffmpeg-master-latest-win64-gpl/bin/ffmpeg -fflags +genpts -rtsp_transport tcp -thread_queue_size 16 -i rtsp://admin:admin172839@192.168.0.209:1024/Streaming/Channels/501 -vcodec copy -f flv -an -s 640x480 rtmp://127.0.0.1:1935/hls/live5
2022-10-19 14:12:08,213 [defaultEventExecutorGroup-2-1] INFO  [com.suke.axsc.web.component.NettyWebSocketServer] NettyWebSocketServer.java:124 - NettyWebSocket[64259],è®¢é˜…[3]ç›´æ’­
2022-10-19 14:12:08,236 [Thread-14] INFO  [com.suke.axsc.web.handler.CustomOutHandlerMethod] CustomOutHandlerMethod.java:59 - live5æ—¥å¿—ï¼šffmpeg version N-108404-gc03f9654c9-20220927 Copyright (c) 2000-2022 the FFmpeg developers
2022-10-19 14:12:08,236 [Thread-14] INFO  [com.suke.axsc.web.handler.CustomOutHandlerMethod] CustomOutHandlerMethod.java:59 - live5æ—¥å¿—ï¼š  built with gcc 12.1.0 (crosstool-NG 1.25.0.55_3defb7b)
2022-10-19 14:12:08,236 [Thread-14] INFO  [com.suke.axsc.web.handler.CustomOutHandlerMethod] CustomOutHandlerMethod.java:59 - live5æ—¥å¿—ï¼š  configuration: --prefix=/ffbuild/prefix --pkg-config-flags=--static --pkg-config=pkg-config --cross-prefix=x86_64-w64-mingw32- --arch=x86_64 --target-os=mingw32 --enable-gpl --enable-version3 --disable-debug --disable-w32threads --enable-pthreads --enable-iconv --enable-libxml2 --enable-zlib --enable-libfreetype --enable-libfribidi --enable-gmp --enable-lzma --enable-fontconfig --enable-libvorbis --enable-opencl --disable-libpulse --enable-libvmaf --disable-libxcb --disable-xlib --enable-amf --enable-libaom --enable-libaribb24 --enable-avisynth --enable-libdav1d --enable-libdavs2 --disable-libfdk-aac --enable-ffnvcodec --enable-cuda-llvm --enable-frei0r --enable-libgme --enable-libkvazaar --enable-libass --enable-libbluray --enable-libjxl --enable-libmp3lame --enable-libopus --enable-librist --enable-libssh --enable-libtheora --enable-libvpx --enable-libwebp --enable-lv2 --enable-libmfx --enable-libopencore-amrnb --enable-libopencore-amrwb --enable-libopenh264 --enable-libopenjpeg --enable-libopenmpt --enable-librav1e --enable-librubberband --enable-schannel --enable-sdl2 --enable-libsoxr --enable-libsrt --enable-libsvtav1 --enable-libtwolame --enable-libuavs3d --disable-libdrm --disable-vaapi --enable-libvidstab --enable-vulkan --enable-libshaderc --enable-libplacebo --enable-libx264 --enable-libx265 --enable-libxavs2 --enable-libxvid --enable-libzimg --enable-libzvbi --extra-cflags=-DLIBTWOLAME_STATIC --extra-cxxflags= --extra-ldflags=-pthread --extra-ldexeflags= --extra-libs=-lgomp --extra-version=20220927
2022-10-19 14:12:08,237 [Thread-14] INFO  [com.suke.axsc.web.handler.CustomOutHandlerMethod] CustomOutHandlerMethod.java:59 - live5æ—¥å¿—ï¼š  libavutil      57. 37.100 / 57. 37.100
2022-10-19 14:12:08,237 [Thread-14] INFO  [com.suke.axsc.web.handler.CustomOutHandlerMethod] CustomOutHandlerMethod.java:59 - live5æ—¥å¿—ï¼š  libavcodec     59. 48.100 / 59. 48.100
2022-10-19 14:12:08,237 [Thread-14] INFO  [com.suke.axsc.web.handler.CustomOutHandlerMethod] CustomOutHandlerMethod.java:59 - live5æ—¥å¿—ï¼š  libavformat    59. 33.100 / 59. 33.100
2022-10-19 14:12:08,237 [Thread-14] INFO  [com.suke.axsc.web.handler.CustomOutHandlerMethod] CustomOutHandlerMethod.java:59 - live5æ—¥å¿—ï¼š  libavdevice    59.  8.101 / 59.  8.101
2022-10-19 14:12:08,238 [Thread-14] INFO  [com.suke.axsc.web.handler.CustomOutHandlerMethod] CustomOutHandlerMethod.java:59 - live5æ—¥å¿—ï¼š  libavfilter     8. 49.100 /  8. 49.100
2022-10-19 14:12:08,238 [Thread-14] INFO  [com.suke.axsc.web.handler.CustomOutHandlerMethod] CustomOutHandlerMethod.java:59 - live5æ—¥å¿—ï¼š  libswscale      6.  8.112 /  6.  8.112
2022-10-19 14:12:08,238 [Thread-14] INFO  [com.suke.axsc.web.handler.CustomOutHandlerMethod] CustomOutHandlerMethod.java:59 - live5æ—¥å¿—ï¼š  libswresample   4.  9.100 /  4.  9.100
2022-10-19 14:12:08,238 [Thread-14] INFO  [com.suke.axsc.web.handler.CustomOutHandlerMethod] CustomOutHandlerMethod.java:59 - live5æ—¥å¿—ï¼š  libpostproc    56.  7.100 / 56.  7.100
2022-10-19 14:12:09,485 [Thread-14] INFO  [com.suke.axsc.web.handler.CustomOutHandlerMethod] CustomOutHandlerMethod.java:59 - live5æ—¥å¿—ï¼šInput #0, rtsp, from 'rtsp://admin:admin172839@192.168.0.209:1024/Streaming/Channels/501':
2022-10-19 14:12:09,485 [Thread-14] INFO  [com.suke.axsc.web.handler.CustomOutHandlerMethod] CustomOutHandlerMethod.java:59 - live5æ—¥å¿—ï¼š  Metadata:
2022-10-19 14:12:09,485 [Thread-14] INFO  [com.suke.axsc.web.handler.CustomOutHandlerMethod] CustomOutHandlerMethod.java:59 - live5æ—¥å¿—ï¼š    title           : HIK Media Server V3.3.11
2022-10-19 14:12:09,486 [Thread-14] INFO  [com.suke.axsc.web.handler.CustomOutHandlerMethod] CustomOutHandlerMethod.java:59 - live5æ—¥å¿—ï¼š    comment         : HIK Media Server Session Description : standard
2022-10-19 14:12:09,486 [Thread-14] INFO  [com.suke.axsc.web.handler.CustomOutHandlerMethod] CustomOutHandlerMethod.java:59 - live5æ—¥å¿—ï¼š  Duration: N/A, start: 0.040000, bitrate: N/A
2022-10-19 14:12:09,486 [Thread-14] INFO  [com.suke.axsc.web.handler.CustomOutHandlerMethod] CustomOutHandlerMethod.java:59 - live5æ—¥å¿—ï¼š  Stream #0:0: Video: h264 (Main), yuvj420p(pc, bt709, progressive), 1920x1080, 25 fps, 25 tbr, 90k tbn
2022-10-19 14:12:09,486 [Thread-14] INFO  [com.suke.axsc.web.handler.CustomOutHandlerMethod] CustomOutHandlerMethod.java:59 - live5æ—¥å¿—ï¼šOutput #0, flv, to 'rtmp://127.0.0.1:1935/hls/live5':
2022-10-19 14:12:09,487 [Thread-14] INFO  [com.suke.axsc.web.handler.CustomOutHandlerMethod] CustomOutHandlerMethod.java:59 - live5æ—¥å¿—ï¼š  Metadata:
2022-10-19 14:12:09,487 [Thread-14] INFO  [com.suke.axsc.web.handler.CustomOutHandlerMethod] CustomOutHandlerMethod.java:59 - live5æ—¥å¿—ï¼š    title           : HIK Media Server V3.3.11
2022-10-19 14:12:09,487 [Thread-14] INFO  [com.suke.axsc.web.handler.CustomOutHandlerMethod] CustomOutHandlerMethod.java:59 - live5æ—¥å¿—ï¼š    comment         : HIK Media Server Session Description : standard
2022-10-19 14:12:09,487 [Thread-14] INFO  [com.suke.axsc.web.handler.CustomOutHandlerMethod] CustomOutHandlerMethod.java:59 - live5æ—¥å¿—ï¼š    encoder         : Lavf59.33.100
2022-10-19 14:12:09,487 [Thread-14] INFO  [com.suke.axsc.web.handler.CustomOutHandlerMethod] CustomOutHandlerMethod.java:59 - live5æ—¥å¿—ï¼š  Stream #0:0: Video: h264 (Main) ([7][0][0][0] / 0x0007), yuvj420p(pc, bt709, progressive), 1920x1080, q=2-31, 25 fps, 25 tbr, 1k tbn
2022-10-19 14:12:09,488 [Thread-14] INFO  [com.suke.axsc.web.handler.CustomOutHandlerMethod] CustomOutHandlerMethod.java:59 - live5æ—¥å¿—ï¼šStream mapping:
2022-10-19 14:12:09,488 [Thread-14] INFO  [com.suke.axsc.web.handler.CustomOutHandlerMethod] CustomOutHandlerMethod.java:59 - live5æ—¥å¿—ï¼š  Stream #0:0 -> #0:0 (copy)
2022-10-19 14:12:09,488 [Thread-14] INFO  [com.suke.axsc.web.handler.CustomOutHandlerMethod] CustomOutHandlerMethod.java:59 - live5æ—¥å¿—ï¼šPress [q] to stop, [?] for help
2022-10-19 14:12:09,496 [Thread-14] INFO  [com.suke.axsc.web.handler.CustomOutHandlerMethod] CustomOutHandlerMethod.java:59 - live5æ—¥å¿—ï¼š[rtsp @ 00000229ece72c00] Thread message queue blocking; consider raising the thread_queue_size option (current value: 16)
2022-10-19 14:14:34,855 [SpringApplicationShutdownHook] INFO  [com.suke.axsc.web.config.ServiceStopListener] ServiceStopListener.java:26 - æœåŠ¡å³å°†åœæ­¢...
2022-10-19 14:14:34,855 [SpringApplicationShutdownHook] INFO  [com.suke.axsc.common.push.cmd.CommandManagerImpl] CommandManagerImpl.java:113 - åœæ­¢äº†3ä¸ªä»»åŠ¡ï¼
2022-10-19 14:14:34,856 [SpringApplicationShutdownHook] INFO  [com.suke.axsc.web.config.ServiceStopListener] ServiceStopListener.java:28 - é”€æ¯åå°èµ„æºå’Œä¿æ´»çº¿ç¨‹ï¼
2022-10-19 14:14:34,861 [Thread-4] ERROR [c.s.axsc.common.push.handler.ProcessWatchHandler] ProcessWatchHandler.java:49 - taskId:live3 è¿›ç¨‹å¯èƒ½æŒ‚äº†ï¼Œæ²¡æœ‰æ—¥å¿—è¾“å‡º
2022-10-19 14:14:34,903 [SpringApplicationShutdownHook] INFO  [com.zaxxer.hikari.HikariDataSource] HikariDataSource.java:350 - HikariPool-1 - Shutdown initiated...
2022-10-19 14:14:34,906 [SpringApplicationShutdownHook] INFO  [com.zaxxer.hikari.HikariDataSource] HikariDataSource.java:352 - HikariPool-1 - Shutdown completed.
2022-10-19 14:14:38,776 [main] INFO  [com.suke.axsc.web.WebApplication] StartupInfoLogger.java:55 - Starting WebApplication using Java 1.8.0_77 on USERCHI-SALSHQ8 with PID 14912 (E:\github\push-stream\web-app\target\classes started by Administrator in E:\github\push-stream)
2022-10-19 14:14:38,779 [main] INFO  [com.suke.axsc.web.WebApplication] SpringApplication.java:634 - No active profile set, falling back to 1 default profile: "default"
2022-10-19 14:14:39,482 [main] INFO  [o.s.boot.web.embedded.tomcat.TomcatWebServer] TomcatWebServer.java:108 - Tomcat initialized with port(s): 8055 (http)
2022-10-19 14:14:39,488 [main] INFO  [org.apache.coyote.http11.Http11NioProtocol] DirectJDKLog.java:173 - Initializing ProtocolHandler ["http-nio-8055"]
2022-10-19 14:14:39,488 [main] INFO  [org.apache.catalina.core.StandardService] DirectJDKLog.java:173 - Starting service [Tomcat]
2022-10-19 14:14:39,488 [main] INFO  [org.apache.catalina.core.StandardEngine] DirectJDKLog.java:173 - Starting Servlet engine: [Apache Tomcat/9.0.65]
2022-10-19 14:14:39,576 [main] INFO  [o.a.c.core.ContainerBase.[Tomcat].[localhost].[/]] DirectJDKLog.java:173 - Initializing Spring embedded WebApplicationContext
2022-10-19 14:14:39,576 [main] INFO  [o.s.b.w.s.c.ServletWebServerApplicationContext] ServletWebServerApplicationContext.java:292 - Root WebApplicationContext: initialization completed in 769 ms
2022-10-19 14:14:40,001 [main] INFO  [o.s.b.a.web.servlet.WelcomePageHandlerMapping] WelcomePageHandlerMapping.java:53 - Adding welcome page: class path resource [static/index.html]
2022-10-19 14:14:40,054 [main] INFO  [c.s.a.common.push.util.ApplicationContextRegister] ApplicationContextRegister.java:27 - ApplicationContext register-->org.springframework.boot.web.servlet.context.AnnotationConfigServletWebServerApplicationContext@66ce957f, started on Wed Oct 19 14:14:38 CST 2022
2022-10-19 14:14:40,262 [main] INFO  [org.yeauty.standard.ServerEndpointExporter] ServerEndpointExporter.java:131 - [34mNetty WebSocket started on port: 8056 with context path(s): '/websocket/{sid}' .[0m
2022-10-19 14:14:40,264 [main] INFO  [org.apache.coyote.http11.Http11NioProtocol] DirectJDKLog.java:173 - Starting ProtocolHandler ["http-nio-8055"]
2022-10-19 14:14:40,271 [main] INFO  [o.s.boot.web.embedded.tomcat.TomcatWebServer] TomcatWebServer.java:220 - Tomcat started on port(s): 8055 (http) with context path ''
2022-10-19 14:14:40,277 [main] INFO  [com.suke.axsc.web.WebApplication] StartupInfoLogger.java:61 - Started WebApplication in 1.836 seconds (JVM running for 2.243)
2022-10-19 14:14:40,279 [main] INFO  [com.suke.axsc.web.WebApplication] WebApplication.java:20 - æ¨æµæœåŠ¡å¯åŠ¨æˆåŠŸï¼šhttp://localhost:8055/index.html
2022-10-19 14:14:48,595 [nioEventLoopGroup-4-1] INFO  [com.suke.axsc.web.component.NettyWebSocketServer] NettyWebSocketServer.java:73 - NettyWebSocket[64259],è¿æ¥æˆåŠŸ
2022-10-19 14:15:03,953 [defaultEventExecutorGroup-2-1] INFO  [com.suke.axsc.web.component.NettyWebSocketServer] NettyWebSocketServer.java:88 - NettyWebSocket[64259],é€€å‡ºè¿æ¥
2022-10-19 14:15:35,912 [http-nio-8055-exec-1] INFO  [o.a.c.core.ContainerBase.[Tomcat].[localhost].[/]] DirectJDKLog.java:173 - Initializing Spring DispatcherServlet 'dispatcherServlet'
2022-10-19 14:15:35,912 [http-nio-8055-exec-1] INFO  [org.springframework.web.servlet.DispatcherServlet] FrameworkServlet.java:525 - Initializing Servlet 'dispatcherServlet'
2022-10-19 14:15:35,913 [http-nio-8055-exec-1] INFO  [org.springframework.web.servlet.DispatcherServlet] FrameworkServlet.java:547 - Completed initialization in 1 ms
2022-10-19 14:15:36,135 [nioEventLoopGroup-4-2] INFO  [com.suke.axsc.web.component.NettyWebSocketServer] NettyWebSocketServer.java:73 - NettyWebSocket[21953],è¿æ¥æˆåŠŸ
2022-10-19 14:15:36,185 [http-nio-8055-exec-1] INFO  [com.zaxxer.hikari.HikariDataSource] HikariDataSource.java:110 - HikariPool-1 - Starting...
2022-10-19 14:15:36,294 [http-nio-8055-exec-1] INFO  [com.zaxxer.hikari.HikariDataSource] HikariDataSource.java:123 - HikariPool-1 - Start completed.
2022-10-19 14:15:41,055 [Thread-12] INFO  [com.suke.axsc.common.push.handler.OutHandler] OutHandler.java:100 - live1å¼€å§‹æ¨æµï¼
2022-10-19 14:15:41,055 [defaultEventExecutorGroup-2-2] INFO  [com.suke.axsc.common.push.util.ExecUtil] ExecUtil.java:91 - ä»»åŠ¡IDï¼šlive1,ä½¿ç”¨è¾“å‡ºçº¿ç¨‹ï¼šThread-12
2022-10-19 14:15:41,055 [defaultEventExecutorGroup-2-2] INFO  [com.suke.axsc.common.push.handler.TaskHandlerImpl] TaskHandlerImpl.java:39 - live1 æ‰§è¡Œå‘½ä»¤è¡Œï¼šJ:/rtsp_live/ffmpeg-master-latest-win64-gpl/bin/ffmpeg -fflags +genpts -rtsp_transport tcp -thread_queue_size 16 -i rtsp://admin:admin172839@192.168.0.209:1024/Streaming/Channels/101 -vcodec copy -f flv -an -s 640x480 rtmp://127.0.0.1:1935/hls/live1
2022-10-19 14:15:41,055 [defaultEventExecutorGroup-2-2] INFO  [com.suke.axsc.web.component.NettyWebSocketServer] NettyWebSocketServer.java:124 - NettyWebSocket[21953],è®¢é˜…[1]ç›´æ’­
2022-10-19 14:15:41,118 [Thread-12] INFO  [com.suke.axsc.web.handler.CustomOutHandlerMethod] CustomOutHandlerMethod.java:59 - live1æ—¥å¿—ï¼šffmpeg version N-108404-gc03f9654c9-20220927 Copyright (c) 2000-2022 the FFmpeg developers
2022-10-19 14:15:41,118 [Thread-12] INFO  [com.suke.axsc.web.handler.CustomOutHandlerMethod] CustomOutHandlerMethod.java:59 - live1æ—¥å¿—ï¼š  built with gcc 12.1.0 (crosstool-NG 1.25.0.55_3defb7b)
2022-10-19 14:15:41,119 [Thread-12] INFO  [com.suke.axsc.web.handler.CustomOutHandlerMethod] CustomOutHandlerMethod.java:59 - live1æ—¥å¿—ï¼š  configuration: --prefix=/ffbuild/prefix --pkg-config-flags=--static --pkg-config=pkg-config --cross-prefix=x86_64-w64-mingw32- --arch=x86_64 --target-os=mingw32 --enable-gpl --enable-version3 --disable-debug --disable-w32threads --enable-pthreads --enable-iconv --enable-libxml2 --enable-zlib --enable-libfreetype --enable-libfribidi --enable-gmp --enable-lzma --enable-fontconfig --enable-libvorbis --enable-opencl --disable-libpulse --enable-libvmaf --disable-libxcb --disable-xlib --enable-amf --enable-libaom --enable-libaribb24 --enable-avisynth --enable-libdav1d --enable-libdavs2 --disable-libfdk-aac --enable-ffnvcodec --enable-cuda-llvm --enable-frei0r --enable-libgme --enable-libkvazaar --enable-libass --enable-libbluray --enable-libjxl --enable-libmp3lame --enable-libopus --enable-librist --enable-libssh --enable-libtheora --enable-libvpx --enable-libwebp --enable-lv2 --enable-libmfx --enable-libopencore-amrnb --enable-libopencore-amrwb --enable-libopenh264 --enable-libopenjpeg --enable-libopenmpt --enable-librav1e --enable-librubberband --enable-schannel --enable-sdl2 --enable-libsoxr --enable-libsrt --enable-libsvtav1 --enable-libtwolame --enable-libuavs3d --disable-libdrm --disable-vaapi --enable-libvidstab --enable-vulkan --enable-libshaderc --enable-libplacebo --enable-libx264 --enable-libx265 --enable-libxavs2 --enable-libxvid --enable-libzimg --enable-libzvbi --extra-cflags=-DLIBTWOLAME_STATIC --extra-cxxflags= --extra-ldflags=-pthread --extra-ldexeflags= --extra-libs=-lgomp --extra-version=20220927
2022-10-19 14:15:41,119 [Thread-12] INFO  [com.suke.axsc.web.handler.CustomOutHandlerMethod] CustomOutHandlerMethod.java:59 - live1æ—¥å¿—ï¼š  libavutil      57. 37.100 / 57. 37.100
2022-10-19 14:15:41,119 [Thread-12] INFO  [com.suke.axsc.web.handler.CustomOutHandlerMethod] CustomOutHandlerMethod.java:59 - live1æ—¥å¿—ï¼š  libavcodec     59. 48.100 / 59. 48.100
2022-10-19 14:15:41,119 [Thread-12] INFO  [com.suke.axsc.web.handler.CustomOutHandlerMethod] CustomOutHandlerMethod.java:59 - live1æ—¥å¿—ï¼š  libavformat    59. 33.100 / 59. 33.100
2022-10-19 14:15:41,119 [Thread-12] INFO  [com.suke.axsc.web.handler.CustomOutHandlerMethod] CustomOutHandlerMethod.java:59 - live1æ—¥å¿—ï¼š  libavdevice    59.  8.101 / 59.  8.101
2022-10-19 14:15:41,119 [Thread-12] INFO  [com.suke.axsc.web.handler.CustomOutHandlerMethod] CustomOutHandlerMethod.java:59 - live1æ—¥å¿—ï¼š  libavfilter     8. 49.100 /  8. 49.100
2022-10-19 14:15:41,119 [Thread-12] INFO  [com.suke.axsc.web.handler.CustomOutHandlerMethod] CustomOutHandlerMethod.java:59 - live1æ—¥å¿—ï¼š  libswscale      6.  8.112 /  6.  8.112
2022-10-19 14:15:41,120 [Thread-12] INFO  [com.suke.axsc.web.handler.CustomOutHandlerMethod] CustomOutHandlerMethod.java:59 - live1æ—¥å¿—ï¼š  libswresample   4.  9.100 /  4.  9.100
2022-10-19 14:15:41,120 [Thread-12] INFO  [com.suke.axsc.web.handler.CustomOutHandlerMethod] CustomOutHandlerMethod.java:59 - live1æ—¥å¿—ï¼š  libpostproc    56.  7.100 / 56.  7.100
2022-10-19 14:15:43,598 [Thread-13] INFO  [com.suke.axsc.common.push.handler.OutHandler] OutHandler.java:100 - live3å¼€å§‹æ¨æµï¼
2022-10-19 14:15:43,598 [defaultEventExecutorGroup-2-2] INFO  [com.suke.axsc.common.push.util.ExecUtil] ExecUtil.java:91 - ä»»åŠ¡IDï¼šlive3,ä½¿ç”¨è¾“å‡ºçº¿ç¨‹ï¼šThread-13
2022-10-19 14:15:43,599 [defaultEventExecutorGroup-2-2] INFO  [com.suke.axsc.common.push.handler.TaskHandlerImpl] TaskHandlerImpl.java:39 - live3 æ‰§è¡Œå‘½ä»¤è¡Œï¼šJ:/rtsp_live/ffmpeg-master-latest-win64-gpl/bin/ffmpeg -fflags +genpts -rtsp_transport tcp -thread_queue_size 16 -i rtsp://admin:admin172839@192.168.0.209:1024/Streaming/Channels/301 -vcodec copy -f flv -an -s 640x480 rtmp://127.0.0.1:1935/hls/live3
2022-10-19 14:15:43,599 [defaultEventExecutorGroup-2-2] INFO  [com.suke.axsc.web.component.NettyWebSocketServer] NettyWebSocketServer.java:124 - NettyWebSocket[21953],è®¢é˜…[2]ç›´æ’­
2022-10-19 14:15:43,622 [Thread-13] INFO  [com.suke.axsc.web.handler.CustomOutHandlerMethod] CustomOutHandlerMethod.java:59 - live3æ—¥å¿—ï¼šffmpeg version N-108404-gc03f9654c9-20220927 Copyright (c) 2000-2022 the FFmpeg developers
2022-10-19 14:15:43,622 [Thread-13] INFO  [com.suke.axsc.web.handler.CustomOutHandlerMethod] CustomOutHandlerMethod.java:59 - live3æ—¥å¿—ï¼š  built with gcc 12.1.0 (crosstool-NG 1.25.0.55_3defb7b)
2022-10-19 14:15:43,623 [Thread-13] INFO  [com.suke.axsc.web.handler.CustomOutHandlerMethod] CustomOutHandlerMethod.java:59 - live3æ—¥å¿—ï¼š  configuration: --prefix=/ffbuild/prefix --pkg-config-flags=--static --pkg-config=pkg-config --cross-prefix=x86_64-w64-mingw32- --arch=x86_64 --target-os=mingw32 --enable-gpl --enable-version3 --disable-debug --disable-w32threads --enable-pthreads --enable-iconv --enable-libxml2 --enable-zlib --enable-libfreetype --enable-libfribidi --enable-gmp --enable-lzma --enable-fontconfig --enable-libvorbis --enable-opencl --disable-libpulse --enable-libvmaf --disable-libxcb --disable-xlib --enable-amf --enable-libaom --enable-libaribb24 --enable-avisynth --enable-libdav1d --enable-libdavs2 --disable-libfdk-aac --enable-ffnvcodec --enable-cuda-llvm --enable-frei0r --enable-libgme --enable-libkvazaar --enable-libass --enable-libbluray --enable-libjxl --enable-libmp3lame --enable-libopus --enable-librist --enable-libssh --enable-libtheora --enable-libvpx --enable-libwebp --enable-lv2 --enable-libmfx --enable-libopencore-amrnb --enable-libopencore-amrwb --enable-libopenh264 --enable-libopenjpeg --enable-libopenmpt --enable-librav1e --enable-librubberband --enable-schannel --enable-sdl2 --enable-libsoxr --enable-libsrt --enable-libsvtav1 --enable-libtwolame --enable-libuavs3d --disable-libdrm --disable-vaapi --enable-libvidstab --enable-vulkan --enable-libshaderc --enable-libplacebo --enable-libx264 --enable-libx265 --enable-libxavs2 --enable-libxvid --enable-libzimg --enable-libzvbi --extra-cflags=-DLIBTWOLAME_STATIC --extra-cxxflags= --extra-ldflags=-pthread --extra-ldexeflags= --extra-libs=-lgomp --extra-version=20220927
2022-10-19 14:15:43,623 [Thread-13] INFO  [com.suke.axsc.web.handler.CustomOutHandlerMethod] CustomOutHandlerMethod.java:59 - live3æ—¥å¿—ï¼š  libavutil      57. 37.100 / 57. 37.100
2022-10-19 14:15:43,623 [Thread-13] INFO  [com.suke.axsc.web.handler.CustomOutHandlerMethod] CustomOutHandlerMethod.java:59 - live3æ—¥å¿—ï¼š  libavcodec     59. 48.100 / 59. 48.100
2022-10-19 14:15:43,623 [Thread-13] INFO  [com.suke.axsc.web.handler.CustomOutHandlerMethod] CustomOutHandlerMethod.java:59 - live3æ—¥å¿—ï¼š  libavformat    59. 33.100 / 59. 33.100
2022-10-19 14:15:43,624 [Thread-13] INFO  [com.suke.axsc.web.handler.CustomOutHandlerMethod] CustomOutHandlerMethod.java:59 - live3æ—¥å¿—ï¼š  libavdevice    59.  8.101 / 59.  8.101
2022-10-19 14:15:43,624 [Thread-13] INFO  [com.suke.axsc.web.handler.CustomOutHandlerMethod] CustomOutHandlerMethod.java:59 - live3æ—¥å¿—ï¼š  libavfilter     8. 49.100 /  8. 49.100
2022-10-19 14:15:43,624 [Thread-13] INFO  [com.suke.axsc.web.handler.CustomOutHandlerMethod] CustomOutHandlerMethod.java:59 - live3æ—¥å¿—ï¼š  libswscale      6.  8.112 /  6.  8.112
2022-10-19 14:15:43,624 [Thread-13] INFO  [com.suke.axsc.web.handler.CustomOutHandlerMethod] CustomOutHandlerMethod.java:59 - live3æ—¥å¿—ï¼š  libswresample   4.  9.100 /  4.  9.100
2022-10-19 14:15:43,625 [Thread-13] INFO  [com.suke.axsc.web.handler.CustomOutHandlerMethod] CustomOutHandlerMethod.java:59 - live3æ—¥å¿—ï¼š  libpostproc    56.  7.100 / 56.  7.100
2022-10-19 14:15:44,818 [Thread-13] INFO  [com.suke.axsc.web.handler.CustomOutHandlerMethod] CustomOutHandlerMethod.java:59 - live3æ—¥å¿—ï¼šInput #0, rtsp, from 'rtsp://admin:admin172839@192.168.0.209:1024/Streaming/Channels/301':
2022-10-19 14:15:44,818 [Thread-13] INFO  [com.suke.axsc.web.handler.CustomOutHandlerMethod] CustomOutHandlerMethod.java:59 - live3æ—¥å¿—ï¼š  Metadata:
2022-10-19 14:15:44,819 [Thread-13] INFO  [com.suke.axsc.web.handler.CustomOutHandlerMethod] CustomOutHandlerMethod.java:59 - live3æ—¥å¿—ï¼š    title           : HIK Media Server V3.3.11
2022-10-19 14:15:44,819 [Thread-13] INFO  [com.suke.axsc.web.handler.CustomOutHandlerMethod] CustomOutHandlerMethod.java:59 - live3æ—¥å¿—ï¼š    comment         : HIK Media Server Session Description : standard
2022-10-19 14:15:44,819 [Thread-13] INFO  [com.suke.axsc.web.handler.CustomOutHandlerMethod] CustomOutHandlerMethod.java:59 - live3æ—¥å¿—ï¼š  Duration: N/A, start: 0.040000, bitrate: N/A
2022-10-19 14:15:44,819 [Thread-13] INFO  [com.suke.axsc.web.handler.CustomOutHandlerMethod] CustomOutHandlerMethod.java:59 - live3æ—¥å¿—ï¼š  Stream #0:0: Video: h264 (Main), yuvj420p(pc, bt709, progressive), 1280x720, 25 fps, 25 tbr, 90k tbn
2022-10-19 14:15:44,820 [Thread-13] INFO  [com.suke.axsc.web.handler.CustomOutHandlerMethod] CustomOutHandlerMethod.java:59 - live3æ—¥å¿—ï¼šOutput #0, flv, to 'rtmp://127.0.0.1:1935/hls/live3':
2022-10-19 14:15:44,820 [Thread-13] INFO  [com.suke.axsc.web.handler.CustomOutHandlerMethod] CustomOutHandlerMethod.java:59 - live3æ—¥å¿—ï¼š  Metadata:
2022-10-19 14:15:44,820 [Thread-13] INFO  [com.suke.axsc.web.handler.CustomOutHandlerMethod] CustomOutHandlerMethod.java:59 - live3æ—¥å¿—ï¼š    title           : HIK Media Server V3.3.11
2022-10-19 14:15:44,820 [Thread-13] INFO  [com.suke.axsc.web.handler.CustomOutHandlerMethod] CustomOutHandlerMethod.java:59 - live3æ—¥å¿—ï¼š    comment         : HIK Media Server Session Description : standard
2022-10-19 14:15:44,820 [Thread-13] INFO  [com.suke.axsc.web.handler.CustomOutHandlerMethod] CustomOutHandlerMethod.java:59 - live3æ—¥å¿—ï¼š    encoder         : Lavf59.33.100
2022-10-19 14:15:44,820 [Thread-13] INFO  [com.suke.axsc.web.handler.CustomOutHandlerMethod] CustomOutHandlerMethod.java:59 - live3æ—¥å¿—ï¼š  Stream #0:0: Video: h264 (Main) ([7][0][0][0] / 0x0007), yuvj420p(pc, bt709, progressive), 1280x720, q=2-31, 25 fps, 25 tbr, 1k tbn
2022-10-19 14:15:44,821 [Thread-13] INFO  [com.suke.axsc.web.handler.CustomOutHandlerMethod] CustomOutHandlerMethod.java:59 - live3æ—¥å¿—ï¼šStream mapping:
2022-10-19 14:15:44,821 [Thread-13] INFO  [com.suke.axsc.web.handler.CustomOutHandlerMethod] CustomOutHandlerMethod.java:59 - live3æ—¥å¿—ï¼š  Stream #0:0 -> #0:0 (copy)
2022-10-19 14:15:44,821 [Thread-13] INFO  [com.suke.axsc.web.handler.CustomOutHandlerMethod] CustomOutHandlerMethod.java:59 - live3æ—¥å¿—ï¼šPress [q] to stop, [?] for help
2022-10-19 14:15:44,839 [Thread-13] INFO  [com.suke.axsc.web.handler.CustomOutHandlerMethod] CustomOutHandlerMethod.java:59 - live3æ—¥å¿—ï¼š[rtsp @ 0000021c24d32c00] Thread message queue blocking; consider raising the thread_queue_size option (current value: 16)
2022-10-19 14:15:46,119 [Thread-14] INFO  [com.suke.axsc.common.push.handler.OutHandler] OutHandler.java:100 - live5å¼€å§‹æ¨æµï¼
2022-10-19 14:15:46,119 [defaultEventExecutorGroup-2-2] INFO  [com.suke.axsc.common.push.util.ExecUtil] ExecUtil.java:91 - ä»»åŠ¡IDï¼šlive5,ä½¿ç”¨è¾“å‡ºçº¿ç¨‹ï¼šThread-14
2022-10-19 14:15:46,119 [defaultEventExecutorGroup-2-2] INFO  [com.suke.axsc.common.push.handler.TaskHandlerImpl] TaskHandlerImpl.java:39 - live5 æ‰§è¡Œå‘½ä»¤è¡Œï¼šJ:/rtsp_live/ffmpeg-master-latest-win64-gpl/bin/ffmpeg -fflags +genpts -rtsp_transport tcp -thread_queue_size 16 -i rtsp://admin:admin172839@192.168.0.209:1024/Streaming/Channels/501 -vcodec copy -f flv -an -s 640x480 rtmp://127.0.0.1:1935/hls/live5
2022-10-19 14:15:46,119 [defaultEventExecutorGroup-2-2] INFO  [com.suke.axsc.web.component.NettyWebSocketServer] NettyWebSocketServer.java:124 - NettyWebSocket[21953],è®¢é˜…[3]ç›´æ’­
2022-10-19 14:15:46,141 [Thread-14] INFO  [com.suke.axsc.web.handler.CustomOutHandlerMethod] CustomOutHandlerMethod.java:59 - live5æ—¥å¿—ï¼šffmpeg version N-108404-gc03f9654c9-20220927 Copyright (c) 2000-2022 the FFmpeg developers
2022-10-19 14:15:46,141 [Thread-14] INFO  [com.suke.axsc.web.handler.CustomOutHandlerMethod] CustomOutHandlerMethod.java:59 - live5æ—¥å¿—ï¼š  built with gcc 12.1.0 (crosstool-NG 1.25.0.55_3defb7b)
2022-10-19 14:15:46,142 [Thread-14] INFO  [com.suke.axsc.web.handler.CustomOutHandlerMethod] CustomOutHandlerMethod.java:59 - live5æ—¥å¿—ï¼š  configuration: --prefix=/ffbuild/prefix --pkg-config-flags=--static --pkg-config=pkg-config --cross-prefix=x86_64-w64-mingw32- --arch=x86_64 --target-os=mingw32 --enable-gpl --enable-version3 --disable-debug --disable-w32threads --enable-pthreads --enable-iconv --enable-libxml2 --enable-zlib --enable-libfreetype --enable-libfribidi --enable-gmp --enable-lzma --enable-fontconfig --enable-libvorbis --enable-opencl --disable-libpulse --enable-libvmaf --disable-libxcb --disable-xlib --enable-amf --enable-libaom --enable-libaribb24 --enable-avisynth --enable-libdav1d --enable-libdavs2 --disable-libfdk-aac --enable-ffnvcodec --enable-cuda-llvm --enable-frei0r --enable-libgme --enable-libkvazaar --enable-libass --enable-libbluray --enable-libjxl --enable-libmp3lame --enable-libopus --enable-librist --enable-libssh --enable-libtheora --enable-libvpx --enable-libwebp --enable-lv2 --enable-libmfx --enable-libopencore-amrnb --enable-libopencore-amrwb --enable-libopenh264 --enable-libopenjpeg --enable-libopenmpt --enable-librav1e --enable-librubberband --enable-schannel --enable-sdl2 --enable-libsoxr --enable-libsrt --enable-libsvtav1 --enable-libtwolame --enable-libuavs3d --disable-libdrm --disable-vaapi --enable-libvidstab --enable-vulkan --enable-libshaderc --enable-libplacebo --enable-libx264 --enable-libx265 --enable-libxavs2 --enable-libxvid --enable-libzimg --enable-libzvbi --extra-cflags=-DLIBTWOLAME_STATIC --extra-cxxflags= --extra-ldflags=-pthread --extra-ldexeflags= --extra-libs=-lgomp --extra-version=20220927
2022-10-19 14:15:46,142 [Thread-14] INFO  [com.suke.axsc.web.handler.CustomOutHandlerMethod] CustomOutHandlerMethod.java:59 - live5æ—¥å¿—ï¼š  libavutil      57. 37.100 / 57. 37.100
2022-10-19 14:15:46,142 [Thread-14] INFO  [com.suke.axsc.web.handler.CustomOutHandlerMethod] CustomOutHandlerMethod.java:59 - live5æ—¥å¿—ï¼š  libavcodec     59. 48.100 / 59. 48.100
2022-10-19 14:15:46,142 [Thread-14] INFO  [com.suke.axsc.web.handler.CustomOutHandlerMethod] CustomOutHandlerMethod.java:59 - live5æ—¥å¿—ï¼š  libavformat    59. 33.100 / 59. 33.100
2022-10-19 14:15:46,142 [Thread-14] INFO  [com.suke.axsc.web.handler.CustomOutHandlerMethod] CustomOutHandlerMethod.java:59 - live5æ—¥å¿—ï¼š  libavdevice    59.  8.101 / 59.  8.101
2022-10-19 14:15:46,143 [Thread-14] INFO  [com.suke.axsc.web.handler.CustomOutHandlerMethod] CustomOutHandlerMethod.java:59 - live5æ—¥å¿—ï¼š  libavfilter     8. 49.100 /  8. 49.100
2022-10-19 14:15:46,143 [Thread-14] INFO  [com.suke.axsc.web.handler.CustomOutHandlerMethod] CustomOutHandlerMethod.java:59 - live5æ—¥å¿—ï¼š  libswscale      6.  8.112 /  6.  8.112
2022-10-19 14:15:46,143 [Thread-14] INFO  [com.suke.axsc.web.handler.CustomOutHandlerMethod] CustomOutHandlerMethod.java:59 - live5æ—¥å¿—ï¼š  libswresample   4.  9.100 /  4.  9.100
2022-10-19 14:15:46,143 [Thread-14] INFO  [com.suke.axsc.web.handler.CustomOutHandlerMethod] CustomOutHandlerMethod.java:59 - live5æ—¥å¿—ï¼š  libpostproc    56.  7.100 / 56.  7.100
2022-10-19 14:15:46,499 [Thread-12] INFO  [com.suke.axsc.web.handler.CustomOutHandlerMethod] CustomOutHandlerMethod.java:59 - live1æ—¥å¿—ï¼š[rtsp @ 0000023dc10f2c00] Input #0, rtsp, from 'rtsp://admin:admin172839@192.168.0.209:1024/Streaming/Channels/101':
2022-10-19 14:15:46,499 [Thread-12] INFO  [com.suke.axsc.web.handler.CustomOutHandlerMethod] CustomOutHandlerMethod.java:59 - live1æ—¥å¿—ï¼š  Metadata:
2022-10-19 14:15:46,499 [Thread-12] INFO  [com.suke.axsc.web.handler.CustomOutHandlerMethod] CustomOutHandlerMethod.java:59 - live1æ—¥å¿—ï¼š    title           : HIK Media Server V3.3.11
2022-10-19 14:15:46,500 [Thread-12] INFO  [com.suke.axsc.web.handler.CustomOutHandlerMethod] CustomOutHandlerMethod.java:59 - live1æ—¥å¿—ï¼š    comment         : HIK Media Server Session Description : standard
2022-10-19 14:15:46,500 [Thread-12] INFO  [com.suke.axsc.web.handler.CustomOutHandlerMethod] CustomOutHandlerMethod.java:59 - live1æ—¥å¿—ï¼š  Duration: N/A, start: 0.040000, bitrate: N/A
2022-10-19 14:15:46,500 [Thread-12] INFO  [com.suke.axsc.web.handler.CustomOutHandlerMethod] CustomOutHandlerMethod.java:59 - live1æ—¥å¿—ï¼š  Stream #0:0: Video: h264 (Main), yuvj420p(pc, bt709, progressive), 1920x1080, 25 fps, 25 tbr, 90k tbn
2022-10-19 14:15:46,500 [Thread-12] INFO  [com.suke.axsc.web.handler.CustomOutHandlerMethod] CustomOutHandlerMethod.java:59 - live1æ—¥å¿—ï¼š  Stream #0:1: Audio: none, 16000 Hz, mono
2022-10-19 14:15:46,509 [Thread-12] INFO  [com.suke.axsc.web.handler.CustomOutHandlerMethod] CustomOutHandlerMethod.java:59 - live1æ—¥å¿—ï¼šOutput #0, flv, to 'rtmp://127.0.0.1:1935/hls/live1':
2022-10-19 14:15:46,510 [Thread-12] INFO  [com.suke.axsc.web.handler.CustomOutHandlerMethod] CustomOutHandlerMethod.java:59 - live1æ—¥å¿—ï¼š  Metadata:
2022-10-19 14:15:46,510 [Thread-12] INFO  [com.suke.axsc.web.handler.CustomOutHandlerMethod] CustomOutHandlerMethod.java:59 - live1æ—¥å¿—ï¼š    title           : HIK Media Server V3.3.11
2022-10-19 14:15:46,510 [Thread-12] INFO  [com.suke.axsc.web.handler.CustomOutHandlerMethod] CustomOutHandlerMethod.java:59 - live1æ—¥å¿—ï¼š    comment         : HIK Media Server Session Description : standard
2022-10-19 14:15:46,510 [Thread-12] INFO  [com.suke.axsc.web.handler.CustomOutHandlerMethod] CustomOutHandlerMethod.java:59 - live1æ—¥å¿—ï¼š    encoder         : Lavf59.33.100
2022-10-19 14:15:46,511 [Thread-12] INFO  [com.suke.axsc.web.handler.CustomOutHandlerMethod] CustomOutHandlerMethod.java:59 - live1æ—¥å¿—ï¼š  Stream #0:0: Video: h264 (Main) ([7][0][0][0] / 0x0007), yuvj420p(pc, bt709, progressive), 1920x1080, q=2-31, 25 fps, 25 tbr, 1k tbn
2022-10-19 14:15:46,511 [Thread-12] INFO  [com.suke.axsc.web.handler.CustomOutHandlerMethod] CustomOutHandlerMethod.java:59 - live1æ—¥å¿—ï¼šStream mapping:
2022-10-19 14:15:46,511 [Thread-12] INFO  [com.suke.axsc.web.handler.CustomOutHandlerMethod] CustomOutHandlerMethod.java:59 - live1æ—¥å¿—ï¼š  Stream #0:0 -> #0:0 (copy)
2022-10-19 14:15:46,511 [Thread-12] INFO  [com.suke.axsc.web.handler.CustomOutHandlerMethod] CustomOutHandlerMethod.java:59 - live1æ—¥å¿—ï¼šPress [q] to stop, [?] for help
2022-10-19 14:15:46,519 [Thread-12] INFO  [com.suke.axsc.web.handler.CustomOutHandlerMethod] CustomOutHandlerMethod.java:59 - live1æ—¥å¿—ï¼š[rtsp @ 0000023dc10f2c00] Thread message queue blocking; consider raising the thread_queue_size option (current value: 16)
2022-10-19 14:15:47,376 [Thread-14] INFO  [com.suke.axsc.web.handler.CustomOutHandlerMethod] CustomOutHandlerMethod.java:59 - live5æ—¥å¿—ï¼šInput #0, rtsp, from 'rtsp://admin:admin172839@192.168.0.209:1024/Streaming/Channels/501':
2022-10-19 14:15:47,376 [Thread-14] INFO  [com.suke.axsc.web.handler.CustomOutHandlerMethod] CustomOutHandlerMethod.java:59 - live5æ—¥å¿—ï¼š  Metadata:
2022-10-19 14:15:47,376 [Thread-14] INFO  [com.suke.axsc.web.handler.CustomOutHandlerMethod] CustomOutHandlerMethod.java:59 - live5æ—¥å¿—ï¼š    title           : HIK Media Server V3.3.11
2022-10-19 14:15:47,377 [Thread-14] INFO  [com.suke.axsc.web.handler.CustomOutHandlerMethod] CustomOutHandlerMethod.java:59 - live5æ—¥å¿—ï¼š    comment         : HIK Media Server Session Description : standard
2022-10-19 14:15:47,377 [Thread-14] INFO  [com.suke.axsc.web.handler.CustomOutHandlerMethod] CustomOutHandlerMethod.java:59 - live5æ—¥å¿—ï¼š  Duration: N/A, start: 0.040000, bitrate: N/A
2022-10-19 14:15:47,377 [Thread-14] INFO  [com.suke.axsc.web.handler.CustomOutHandlerMethod] CustomOutHandlerMethod.java:59 - live5æ—¥å¿—ï¼š  Stream #0:0: Video: h264 (Main), yuvj420p(pc, bt709, progressive), 1920x1080, 25 fps, 25 tbr, 90k tbn
2022-10-19 14:15:47,387 [Thread-14] INFO  [com.suke.axsc.web.handler.CustomOutHandlerMethod] CustomOutHandlerMethod.java:59 - live5æ—¥å¿—ï¼šOutput #0, flv, to 'rtmp://127.0.0.1:1935/hls/live5':
2022-10-19 14:15:47,387 [Thread-14] INFO  [com.suke.axsc.web.handler.CustomOutHandlerMethod] CustomOutHandlerMethod.java:59 - live5æ—¥å¿—ï¼š  Metadata:
2022-10-19 14:15:47,387 [Thread-14] INFO  [com.suke.axsc.web.handler.CustomOutHandlerMethod] CustomOutHandlerMethod.java:59 - live5æ—¥å¿—ï¼š    title           : HIK Media Server V3.3.11
2022-10-19 14:15:47,387 [Thread-14] INFO  [com.suke.axsc.web.handler.CustomOutHandlerMethod] CustomOutHandlerMethod.java:59 - live5æ—¥å¿—ï¼š    comment         : HIK Media Server Session Description : standard
2022-10-19 14:15:47,387 [Thread-14] INFO  [com.suke.axsc.web.handler.CustomOutHandlerMethod] CustomOutHandlerMethod.java:59 - live5æ—¥å¿—ï¼š    encoder         : Lavf59.33.100
2022-10-19 14:15:47,388 [Thread-14] INFO  [com.suke.axsc.web.handler.CustomOutHandlerMethod] CustomOutHandlerMethod.java:59 - live5æ—¥å¿—ï¼š  Stream #0:0: Video: h264 (Main) ([7][0][0][0] / 0x0007), yuvj420p(pc, bt709, progressive), 1920x1080, q=2-31, 25 fps, 25 tbr, 1k tbn
2022-10-19 14:15:47,388 [Thread-14] INFO  [com.suke.axsc.web.handler.CustomOutHandlerMethod] CustomOutHandlerMethod.java:59 - live5æ—¥å¿—ï¼šStream mapping:
2022-10-19 14:15:47,388 [Thread-14] INFO  [com.suke.axsc.web.handler.CustomOutHandlerMethod] CustomOutHandlerMethod.java:59 - live5æ—¥å¿—ï¼š  Stream #0:0 -> #0:0 (copy)
2022-10-19 14:15:47,388 [Thread-14] INFO  [com.suke.axsc.web.handler.CustomOutHandlerMethod] CustomOutHandlerMethod.java:59 - live5æ—¥å¿—ï¼šPress [q] to stop, [?] for help
2022-10-19 14:15:47,397 [Thread-14] INFO  [com.suke.axsc.web.handler.CustomOutHandlerMethod] CustomOutHandlerMethod.java:59 - live5æ—¥å¿—ï¼š[rtsp @ 00000119fd722c00] Thread message queue blocking; consider raising the thread_queue_size option (current value: 16)
